<?xml version="1.0" encoding="UTF-8"?>
<!-- Generator: Adobe Illustrator 25.2.1, SVG Export Plug-In . SVG Version: 6.00 Build 0)  -->
<svg xmlns="http://www.w3.org/2000/svg" xmlns:xlink="http://www.w3.org/1999/xlink" version="1.1" id="Layer_1" x="0px" y="0px" viewBox="0 0 515.5 119" style="enable-background:new 0 0 515.5 119;" xml:space="preserve">
<style type="text/css">
	.st0{fill-rule:evenodd;clip-rule:evenodd;fill:#140F11;}
	.st1{fill-rule:evenodd;clip-rule:evenodd;fill:#379779;}
	.st2{fill:#379779;}
	.st3{enable-background:new    ;}
</style>
<path class="st0" d="M169.5,72h-7.6c-3.9,0.2-7.2-2.8-7.4-6.7c0-0.2,0-0.4,0-0.6l0,0V35.1c0-3.5-1-6-3.1-7.6c-2-1.6-4.5-2.4-7-2.4  c-2.5,0-4.9,0.8-6.9,2.4c-2,1.6-3,4.1-3,7.6V72h-15.3V38.2c0-9.8,2.6-16.4,7.7-19.7c5.1-3.3,10.9-5.2,17-5.4c6.2,0,12.3,1.7,17.6,5  c5.3,3.3,8,10.1,8,20.2L169.5,72z"></path>
<path class="st0" d="M226.8,14.2v33.9c0,10.3-2.7,17-8,20.2c-5.3,3.2-11.4,4.8-17.6,4.8c-6-0.2-11.9-2-17-5.2  c-5.1-3.2-7.7-9.8-7.7-19.8V14.2h15.2v37c0,3.5,1,6,3,7.6c2,1.6,4.4,2.4,6.9,2.4c2.5,0,5-0.8,7-2.4c2.1-1.6,3.1-4.1,3.1-7.6V21.6  c0-1.9,0.7-3.8,2.1-5.2c1.4-1.5,3.3-2.3,5.3-2.2H226.8z"></path>
<path class="st0" d="M233.8,72V44c-0.1-4.9,0.7-9.7,2.5-14.2c1.5-3.6,3.8-6.8,6.9-9.2c2.9-2.2,6.2-3.8,9.7-4.8  c3.7-1,7.5-1.5,11.4-1.5h2.2v15.4h-5c-4.2,0-7.3,1-9.3,3s-3,5.2-3,9.6V72H233.8z"></path>
<path class="st0" d="M279.7,66.8c-3.2-2.8-5.4-6.5-6.5-10.5c-1.3-4.5-1.9-9.1-1.9-13.8c0-4,0.5-7.9,1.6-11.7  c0.9-3.6,2.7-6.9,5.1-9.8c3.7-4.3,8.9-7.1,14.5-7.7c5.4-0.8,10.9-0.4,16.1,1.4c5.4,2.1,9.7,6.1,12.1,11.3c2.6,5.2,3.8,10.9,3.7,16.7  c0.1,4-0.4,8-1.5,11.9c-0.9,3-2.2,5.9-3.9,8.5c-3.1,4.5-7.9,7.7-13.2,8.9c-4.7,1.3-9.7,1.4-14.4,0.3C287,71.5,283,69.6,279.7,66.8  L279.7,66.8z M290,28.6c-3,3.3-4.4,8.3-4.1,14.9c0.3,6.6,1.5,11.2,3.7,13.8c1.2,1.4,2.8,2.4,4.6,2.9c2.1,0.8,4.4,0.9,6.6,0.2  c2.5-0.9,4.6-2.6,6-4.9c1.7-2.6,2.7-6.8,2.8-12.6c0-5.2-0.8-9.1-2.5-11.7c-1.3-2.3-3.3-4-5.7-5c-2.1-0.7-4.4-0.8-6.5-0.1  C293,26.6,291.4,27.4,290,28.6z"></path>
<path class="st0" d="M371.5,54.2h10.9c-1.6,6.1-4.6,10.7-9.1,13.9c-4.5,3.3-10.1,5-16.9,5c-8.2,0-14.7-2.7-19.3-8  c-4.6-5.2-7-12.7-7-22.4c0-9.3,2.2-16.5,6.7-21.7c4.6-5.3,11.1-8,19.3-8c8.7,0,15.4,2.6,20.2,7.8c2.6,3.3,4.6,7,5.6,11.1h-15.2  c-0.5-1.2-1.3-2.3-2.2-3.3c-1.9-2-4.6-3-8-3c-2.9-0.1-5.7,1-7.8,3c-2.6,2.9-3.9,7.7-3.9,14.3s1.3,11.4,3.9,14.1  c1.9,2.3,4.7,3.5,8.5,3.5c2.2,0,4.3-0.5,6.2-1.6c0.5-0.1,0.9-0.4,1.2-0.8c0.4-0.4,0.8-0.8,1.2-1.2c0.5-0.7,1.1-1.2,1.7-1.7  C368.7,54.5,370.1,54.1,371.5,54.2z"></path>
<path class="st0" d="M396.5,66.8c-3.1-2.8-5.4-6.5-6.5-10.5c-1.3-4.5-2-9.1-2-13.8c0-4,0.5-7.9,1.6-11.7c0.9-3.6,2.7-7,5.1-9.8  c3.7-4.3,8.9-7.1,14.5-7.7c5.4-0.8,10.9-0.4,16.1,1.4c5.4,2.1,9.7,6.1,12.1,11.3c2.6,5.2,3.8,10.9,3.7,16.7c0.1,4-0.4,8-1.5,11.9  c-0.9,3-2.2,5.9-3.9,8.5c-3.1,4.5-7.9,7.7-13.2,8.9c-4.7,1.3-9.7,1.4-14.4,0.3C403.8,71.5,399.8,69.6,396.5,66.8L396.5,66.8z   M406.9,28.6c-3,3.3-4.4,8.3-4.1,14.9c0.3,6.6,1.5,11.2,3.7,13.8c1.2,1.4,2.8,2.4,4.6,2.9c2.1,0.8,4.4,0.9,6.6,0.2  c2.5-0.9,4.6-2.6,6-4.9c1.7-2.6,2.7-6.8,2.8-12.6c0-5.2-0.8-9.1-2.5-11.7c-1.3-2.3-3.3-4-5.7-5c-2.1-0.7-4.4-0.8-6.5-0.1  C409.9,26.6,408.3,27.4,406.9,28.6L406.9,28.6z"></path>
<path class="st0" d="M448.1,72V44c-0.1-4.9,0.7-9.7,2.5-14.2c1.5-3.6,3.8-6.8,6.8-9.2c2.9-2.2,6.2-3.8,9.7-4.8  c3.7-1,7.5-1.5,11.4-1.5h2.2v15.4h-5c-4.2,0-7.3,1-9.3,3s-3,5.2-3,9.6V72H448.1z"></path>
<path class="st1" d="M16.5,74.5c6.6-6.6,17.3-6.6,23.9,0s6.6,17.3,0,23.9c-6.6,6.6-17.3,6.6-23.9,0C9.9,91.8,9.9,81.1,16.5,74.5  C16.5,74.5,16.5,74.5,16.5,74.5z"></path>
<path class="st1" d="M72.6,18.4c6.6-6.6,17.3-6.6,23.9,0c6.6,6.6,6.6,17.3,0,23.9s-17.3,6.6-23.9,0c0,0,0,0,0,0  C66,35.7,66,25,72.6,18.4z"></path>
<path class="st2" d="M96.4,73.6c-2.8-2.8-6.5-4.6-10.4-5l0,0C65.2,66.1,48.9,49.8,46.4,29l0,0c-1.1-9.6-9.8-16.5-19.4-15.4  S10.5,23.4,11.6,33c0.9,8.1,7.3,14.5,15.4,15.4l0,0C47.8,50.8,64.2,67.2,66.6,88l0,0c1.1,9.6,9.9,16.5,19.5,15.3  c9.6-1.1,16.5-9.9,15.3-19.5C100.9,80,99.2,76.3,96.4,73.6z"></path>
<path d="M489.5,16.5v-2.1h7.6v2.1h-2.6v6.6h-2.5v-6.6H489.5z M501.5,14.5l1.6,5l1.5-5h3.6v8.6H506v-6.3l-1.9,6.2h-2l-1.9-6.2v6.2  h-2.3v-8.6L501.5,14.5z"></path>
<g class="st3">
	<path d="M119.1,83.4h3.8c3.2,0,5.7,0,7.8,1.9c2,1.7,3,4.5,3,8.1s-1.1,6.3-3,8c-2,1.8-4.3,1.9-7.1,1.9c-0.2,0-0.5,0-0.7,0h-3.8V83.4   z M123,100.3c0.5,0,0.9,0,1.4,0c1.9,0,3.4-0.1,4.6-1.3c1.3-1.3,2-3.2,2-5.7c0-2.5-0.7-4.4-2-5.7c-1.3-1.2-2.9-1.3-4.9-1.3   c-0.3,0-0.7,0-1,0h-1v14H123z"></path>
	<path d="M137.7,83c0.9,0,1.6,0.8,1.6,1.8c0,1.1-0.7,1.9-1.6,1.9c-0.9,0-1.6-0.9-1.6-1.9C136.1,83.8,136.8,83,137.7,83z M136.4,90.4   h2.6v12.8h-2.6V90.4z"></path>
	<path d="M147,109.2c-3.2,0-5.1-1.7-5.1-4.1h2.8c0.1,1.1,0.9,1.7,2.4,1.7c2.3,0,3.1-1.2,3.1-3.6l0-1.7c-0.9,1.5-2.1,2.2-3.7,2.2   c-3.1,0-5.1-2.6-5.1-7c0-4.1,2.1-6.9,5-6.9c1.8,0,3.2,0.9,3.8,2.6v-2.1h2.6v12C152.7,107.2,151.3,109.2,147,109.2z M147.1,92.5   c-1.9,0-3.1,1.6-3.1,4.3c0,2.7,1.1,4.3,3.1,4.3c1.8,0,3.1-1.7,3.1-4.4C150.2,94,149,92.5,147.1,92.5z"></path>
	<path d="M157.1,83c0.9,0,1.6,0.8,1.6,1.8c0,1.1-0.7,1.9-1.6,1.9c-0.9,0-1.6-0.9-1.6-1.9C155.5,83.8,156.2,83,157.1,83z M155.8,90.4   h2.6v12.8h-2.6V90.4z"></path>
	<path d="M162.2,92.9h-2v-2.6h2v-4.9h2.6v4.9h2v2.6h-2v10.3h-2.6V92.9z"></path>
	<path d="M176.3,103.2v-1.7c-0.9,1.5-2.1,2.2-3.7,2.2c-3.1,0-5.1-2.6-5.1-7c0-4.1,2.1-6.9,5-6.9c1.8,0,3.2,0.9,3.8,2.6v-2.1h2.6   v12.8H176.3z M173.4,92.5c-1.9,0-3.1,1.6-3.1,4.3c0,2.7,1.1,4.3,3.1,4.3c1.8,0,3.1-1.7,3.1-4.4C176.4,94,175.3,92.5,173.4,92.5z"></path>
	<path d="M182.1,82.2h2.6v21h-2.6V82.2z"></path>
	<path d="M189.2,83c0.9,0,1.6,0.8,1.6,1.8c0,1.1-0.7,1.9-1.6,1.9s-1.6-0.9-1.6-1.9C187.6,83.8,188.3,83,189.2,83z M187.9,90.4h2.6   v12.8h-2.6V90.4z"></path>
	<path d="M191.8,103.2l6.2-10.3h-5.6v-2.6h9.8l-6.1,10.3h6.1v2.6H191.8z"></path>
	<path d="M205.8,97.2c0.1,2.4,1.3,3.8,3.2,3.8c1.6,0,2.7-0.8,3.5-2.5l2.1,1.4c-1.3,2.6-3.1,3.8-5.6,3.8c-3.6,0-5.9-2.7-5.9-6.9   c0-4,2.4-6.9,5.9-6.9c3.6,0,5.7,2.5,5.7,6.7c0,0.2,0,0.4,0,0.6H205.8z M209.1,92.4c-1.7,0-2.7,0.9-3.1,2.8h6.1   C211.9,93.4,210.8,92.4,209.1,92.4z"></path>
	<path d="M227.4,82.2v21h-2.6v-1.7c-0.9,1.5-2.1,2.2-3.7,2.2c-3.1,0-5.1-2.6-5.1-7c0-4.1,2.1-6.9,5-6.9c1.8,0,3.2,0.9,3.8,2.6V82.2   H227.4z M221.9,92.5c-1.9,0-3.1,1.6-3.1,4.3c0,2.7,1.1,4.3,3.1,4.3c1.8,0,3.1-1.7,3.1-4.4C225,94,223.8,92.5,221.9,92.5z"></path>
	<path d="M246,85.9c-3.8,0-6.4,3.1-6.4,7.5c0,4.4,2.6,7.4,6.1,7.4c2.1,0,3.9-0.8,5.6-2.5v3.6c-1.5,1.2-3.3,1.9-5.4,1.9   c-2.7,0-4.9-1-6.6-2.9c-1.7-1.9-2.6-4.6-2.6-7.5c0-2.9,0.9-5.5,2.6-7.5s4-3,6.5-3c2.1,0,3.9,0.7,5.6,2.1l-0.1,3.2   C249.8,86.6,248,85.9,246,85.9z"></path>
	<path d="M254.2,82.2h2.6v21h-2.6V82.2z"></path>
	<path d="M261.4,83c0.9,0,1.6,0.8,1.6,1.8c0,1.1-0.7,1.9-1.6,1.9c-0.9,0-1.6-0.9-1.6-1.9C259.8,83.8,260.5,83,261.4,83z M260.1,90.4   h2.6v12.8h-2.6V90.4z"></path>
	<path d="M265.8,90.4h2.4v2.1c1-1.8,2.4-2.6,4.3-2.6c1.7,0,2.8,0.6,3.5,1.8c0.6,1,0.6,2.1,0.6,3.7v7.8H274v-6.6   c0-2.9-0.3-4.2-2.4-4.2c-1.2,0-2.2,0.5-2.7,1.4c-0.5,0.8-0.5,1.9-0.5,3.5v5.9h-2.6V90.4z"></path>
	<path d="M280.9,83c0.9,0,1.6,0.8,1.6,1.8c0,1.1-0.7,1.9-1.6,1.9s-1.6-0.9-1.6-1.9C279.3,83.8,280,83,280.9,83z M279.6,90.4h2.6   v12.8h-2.6V90.4z"></path>
	<path d="M290.6,92.5c-2.1,0-3.5,1.7-3.5,4.2c0,2.7,1.4,4.3,3.6,4.3c1.2,0,2.2-0.5,2.9-1.6v3.4c-0.9,0.6-2,0.9-3.2,0.9   c-3.5,0-5.9-2.8-5.9-6.9c0-4.1,2.5-6.9,6.2-6.9c1.1,0,2.1,0.2,3,0.8V94C292.9,93,291.9,92.5,290.6,92.5z"></path>
	<path d="M303.8,103.2v-1.7c-0.9,1.5-2.1,2.2-3.7,2.2c-3.1,0-5.1-2.6-5.1-7c0-4.1,2.1-6.9,5-6.9c1.8,0,3.2,0.9,3.8,2.6v-2.1h2.6   v12.8H303.8z M300.8,92.5c-1.9,0-3.1,1.6-3.1,4.3c0,2.7,1.1,4.3,3.1,4.3c1.8,0,3.1-1.7,3.1-4.4C303.9,94,302.7,92.5,300.8,92.5z"></path>
	<path d="M309.5,82.2h2.6v21h-2.6V82.2z"></path>
	<path d="M322.3,83.4h3.8c3.2,0,5.7,0,7.8,1.9c2,1.7,3,4.5,3,8.1s-1.1,6.3-3,8c-2,1.8-4.3,1.9-7.1,1.9c-0.2,0-0.5,0-0.7,0h-3.8V83.4   z M326.1,100.3c0.5,0,0.9,0,1.4,0c1.9,0,3.4-0.1,4.6-1.3c1.3-1.3,2-3.2,2-5.7c0-2.5-0.7-4.4-2-5.7c-1.3-1.2-2.9-1.3-4.9-1.3   c-0.3,0-0.7,0-1,0h-1v14H326.1z"></path>
	<path d="M341.2,97.2c0.1,2.4,1.3,3.8,3.2,3.8c1.6,0,2.7-0.8,3.5-2.5l2.1,1.4c-1.3,2.6-3.1,3.8-5.6,3.8c-3.6,0-5.9-2.7-5.9-6.9   c0-4,2.4-6.9,5.9-6.9c3.6,0,5.7,2.5,5.7,6.7c0,0.2,0,0.4,0,0.6H341.2z M344.5,92.4c-1.7,0-2.7,0.9-3.1,2.8h6.1   C347.3,93.4,346.3,92.4,344.5,92.4z"></path>
	<path d="M350.4,90.4h2.8l2.4,6.5c0.1,0.4,0.4,1.1,0.6,2.3c0.1-0.8,0.4-1.6,0.7-2.3l2.4-6.5h2.8l-5.9,13.6L350.4,90.4z"></path>
	<path d="M365.1,97.2c0.1,2.4,1.3,3.8,3.2,3.8c1.6,0,2.7-0.8,3.5-2.5l2.1,1.4c-1.3,2.6-3.1,3.8-5.6,3.8c-3.6,0-5.9-2.7-5.9-6.9   c0-4,2.4-6.9,5.9-6.9c3.6,0,5.7,2.5,5.7,6.7c0,0.2,0,0.4,0,0.6H365.1z M368.4,92.4c-1.7,0-2.7,0.9-3.1,2.8h6.1   C371.2,93.4,370.1,92.4,368.4,92.4z"></path>
	<path d="M376.3,82.2h2.6v21h-2.6V82.2z"></path>
	<path d="M383,91.9c1.2-1.3,2.7-2,4.3-2c1.7,0,3.2,0.7,4.4,2c1.2,1.3,1.8,3,1.8,4.9c0,1.9-0.6,3.6-1.8,4.9c-1.2,1.3-2.7,2.1-4.4,2.1   c-1.6,0-3.2-0.7-4.3-2c-1.2-1.3-1.8-3-1.8-4.9C381.2,94.9,381.8,93.2,383,91.9z M387.4,92.5c-1.9,0-3.5,1.9-3.5,4.3   c0,2.4,1.5,4.3,3.5,4.3c1.9,0,3.5-1.9,3.5-4.3C390.8,94.4,389.3,92.5,387.4,92.5z"></path>
	<path d="M395.7,90.4h2.6v2.1c0.6-1.6,2-2.6,3.8-2.6c2.9,0,5,2.7,5,6.9c0,4.4-2,7-5.1,7c-1.6,0-2.8-0.7-3.7-2.2v7.7h-2.6V90.4z    M401.4,101.1c1.9,0,3-1.5,3-4.3c0-2.7-1.2-4.3-3.1-4.3c-1.9,0-3.1,1.5-3.1,4.2C398.2,99.5,399.6,101.1,401.4,101.1z"></path>
	<path d="M409.3,103.2V90.4h2.4v2.1c1-1.8,2.2-2.6,4-2.6c1.7,0,2.9,0.8,3.5,2.6c1.2-1.7,2.4-2.6,4.2-2.6c1.5,0,2.6,0.7,3.2,1.8   c0.4,0.7,0.4,1.6,0.4,2.7c0,0.3,0,0.7,0,1v7.8h-2.6v-6.6c0-2.8-0.2-4.2-2.2-4.2c-2.2,0-2.8,1.7-2.8,5v5.9h-2.6v-6.6   c0-2.9-0.5-4.2-2.2-4.2c-1,0-1.9,0.6-2.4,1.5c-0.4,0.8-0.4,1.9-0.4,3.5v5.9H409.3z"></path>
	<path d="M431.8,97.2c0.1,2.4,1.3,3.8,3.2,3.8c1.6,0,2.7-0.8,3.5-2.5l2.1,1.4c-1.3,2.6-3.1,3.8-5.6,3.8c-3.6,0-5.9-2.7-5.9-6.9   c0-4,2.4-6.9,5.9-6.9c3.6,0,5.7,2.5,5.7,6.7c0,0.2,0,0.4,0,0.6H431.8z M435,92.4c-1.7,0-2.7,0.9-3.1,2.8h6.1   C437.9,93.4,436.8,92.4,435,92.4z"></path>
	<path d="M442.9,90.4h2.4v2.1c1-1.8,2.4-2.6,4.3-2.6c1.7,0,2.8,0.6,3.5,1.8c0.6,1,0.6,2.1,0.6,3.7v7.8h-2.6v-6.6   c0-2.9-0.3-4.2-2.4-4.2c-1.2,0-2.2,0.5-2.7,1.4c-0.5,0.8-0.5,1.9-0.5,3.5v5.9h-2.6V90.4z"></path>
	<path d="M457.2,92.9h-2v-2.6h2v-4.9h2.6v4.9h2v2.6h-2v10.3h-2.6V92.9z"></path>
</g>
</svg>
